<?xml version="1.0" encoding="UTF-8" standalone="no"?>
<!DOCTYPE svg PUBLIC "-//W3C//DTD SVG 1.1//EN"
 "http://www.w3.org/Graphics/SVG/1.1/DTD/svg11.dtd">
<!-- Generated by graphviz version 13.1.0 (20250701.0955)
 -->
<!-- Pages: 1 -->
<svg width="395pt" height="44pt"
 viewBox="0.00 0.00 395.00 44.00" xmlns="http://www.w3.org/2000/svg" xmlns:xlink="http://www.w3.org/1999/xlink">
<g id="graph0" class="graph" transform="scale(1 1) rotate(0) translate(4 40)">
<polygon fill="white" stroke="none" points="-4,4 -4,-40 390.5,-40 390.5,4 -4,4"/>
<!-- To Do -->
<g id="node1" class="node">
<title>To Do</title>
<path fill="#ff9800" stroke="black" d="M42,-36C42,-36 12,-36 12,-36 6,-36 0,-30 0,-24 0,-24 0,-12 0,-12 0,-6 6,0 12,0 12,0 42,0 42,0 48,0 54,-6 54,-12 54,-12 54,-24 54,-24 54,-30 48,-36 42,-36"/>
<text xml:space="preserve" text-anchor="middle" x="27" y="-12.95" font-family="Times,serif" font-size="14.00">To Do</text>
</g>
<!-- In Progress -->
<g id="node2" class="node">
<title>In Progress</title>
<path fill="#2196f3" stroke="black" d="M231.25,-36C231.25,-36 177.75,-36 177.75,-36 171.75,-36 165.75,-30 165.75,-24 165.75,-24 165.75,-12 165.75,-12 165.75,-6 171.75,0 177.75,0 177.75,0 231.25,0 231.25,0 237.25,0 243.25,-6 243.25,-12 243.25,-12 243.25,-24 243.25,-24 243.25,-30 237.25,-36 231.25,-36"/>
<text xml:space="preserve" text-anchor="middle" x="204.5" y="-12.95" font-family="Times,serif" font-size="14.00">In Progress</text>
</g>
<!-- To Do&#45;&gt;In Progress -->
<g id="edge1" class="edge">
<title>To Do&#45;&gt;In Progress</title>
<path fill="none" stroke="black" d="M54.27,-18C80.5,-18 121.46,-18 153.84,-18"/>
<polygon fill="black" stroke="black" points="153.82,-21.5 163.82,-18 153.82,-14.5 153.82,-21.5"/>
<text xml:space="preserve" text-anchor="middle" x="109.88" y="-21.2" font-family="Times,serif" font-size="14.00">Start Progress</text>
</g>
<!-- Done -->
<g id="node3" class="node">
<title>Done</title>
<path fill="#4caf50" stroke="black" d="M374.5,-36C374.5,-36 344.5,-36 344.5,-36 338.5,-36 332.5,-30 332.5,-24 332.5,-24 332.5,-12 332.5,-12 332.5,-6 338.5,0 344.5,0 344.5,0 374.5,0 374.5,0 380.5,0 386.5,-6 386.5,-12 386.5,-12 386.5,-24 386.5,-24 386.5,-30 380.5,-36 374.5,-36"/>
<text xml:space="preserve" text-anchor="middle" x="359.5" y="-12.95" font-family="Times,serif" font-size="14.00">Done</text>
</g>
<!-- In Progress&#45;&gt;Done -->
<g id="edge2" class="edge">
<title>In Progress&#45;&gt;Done</title>
<path fill="none" stroke="black" d="M243.71,-18C267.34,-18 297.53,-18 321.01,-18"/>
<polygon fill="black" stroke="black" points="320.77,-21.5 330.77,-18 320.77,-14.5 320.77,-21.5"/>
<text xml:space="preserve" text-anchor="middle" x="287.88" y="-21.2" font-family="Times,serif" font-size="14.00">Complete</text>
</g>
</g>
</svg>
