<?xml version="1.0" encoding="UTF-8" standalone="no"?>
<!DOCTYPE svg PUBLIC "-//W3C//DTD SVG 1.1//EN"
 "http://www.w3.org/Graphics/SVG/1.1/DTD/svg11.dtd">
<!-- Generated by graphviz version 13.1.0 (20250701.0955)
 -->
<!-- Pages: 1 -->
<svg width="397pt" height="98pt"
 viewBox="0.00 0.00 397.00 98.00" xmlns="http://www.w3.org/2000/svg" xmlns:xlink="http://www.w3.org/1999/xlink">
<g id="graph0" class="graph" transform="scale(1 1) rotate(0) translate(4 94)">
<polygon fill="white" stroke="none" points="-4,4 -4,-94 392.75,-94 392.75,4 -4,4"/>
<!-- BLOCKED -->
<g id="node1" class="node">
<title>BLOCKED</title>
<path fill="#2196f3" stroke="black" d="M233.5,-90C233.5,-90 177.75,-90 177.75,-90 171.75,-90 165.75,-84 165.75,-78 165.75,-78 165.75,-66 165.75,-66 165.75,-60 171.75,-54 177.75,-54 177.75,-54 233.5,-54 233.5,-54 239.5,-54 245.5,-60 245.5,-66 245.5,-66 245.5,-78 245.5,-78 245.5,-84 239.5,-90 233.5,-90"/>
<text xml:space="preserve" text-anchor="middle" x="205.62" y="-66.95" font-family="Times,serif" font-size="14.00">BLOCKED</text>
</g>
<!-- Done -->
<g id="node3" class="node">
<title>Done</title>
<path fill="#4caf50" stroke="black" d="M376.75,-63C376.75,-63 346.75,-63 346.75,-63 340.75,-63 334.75,-57 334.75,-51 334.75,-51 334.75,-39 334.75,-39 334.75,-33 340.75,-27 346.75,-27 346.75,-27 376.75,-27 376.75,-27 382.75,-27 388.75,-33 388.75,-39 388.75,-39 388.75,-51 388.75,-51 388.75,-57 382.75,-63 376.75,-63"/>
<text xml:space="preserve" text-anchor="middle" x="361.75" y="-39.95" font-family="Times,serif" font-size="14.00">Done</text>
</g>
<!-- BLOCKED&#45;&gt;Done -->
<g id="edge3" class="edge">
<title>BLOCKED&#45;&gt;Done</title>
<path fill="none" stroke="black" d="M245.92,-65.12C269.72,-60.95 299.91,-55.66 323.36,-51.55"/>
<polygon fill="black" stroke="black" points="323.87,-55.01 333.12,-49.84 322.67,-48.12 323.87,-55.01"/>
<text xml:space="preserve" text-anchor="middle" x="290.12" y="-64.91" font-family="Times,serif" font-size="14.00">Complete</text>
</g>
<!-- In Progress -->
<g id="node2" class="node">
<title>In Progress</title>
<path fill="#2196f3" stroke="black" d="M232.38,-36C232.38,-36 178.88,-36 178.88,-36 172.88,-36 166.88,-30 166.88,-24 166.88,-24 166.88,-12 166.88,-12 166.88,-6 172.88,0 178.88,0 178.88,0 232.38,0 232.38,0 238.38,0 244.38,-6 244.38,-12 244.38,-12 244.38,-24 244.38,-24 244.38,-30 238.38,-36 232.38,-36"/>
<text xml:space="preserve" text-anchor="middle" x="205.62" y="-12.95" font-family="Times,serif" font-size="14.00">In Progress</text>
</g>
<!-- In Progress&#45;&gt;Done -->
<g id="edge4" class="edge">
<title>In Progress&#45;&gt;Done</title>
<path fill="none" stroke="black" d="M244.82,-21.64C266.12,-24.02 293.05,-27.6 316.75,-32.5 318.91,-32.95 321.12,-33.44 323.34,-33.97"/>
<polygon fill="black" stroke="black" points="322.36,-37.33 332.91,-36.45 324.11,-30.56 322.36,-37.33"/>
<text xml:space="preserve" text-anchor="middle" x="290.12" y="-35.7" font-family="Times,serif" font-size="14.00">Complete</text>
</g>
<!-- To Do -->
<g id="node4" class="node">
<title>To Do</title>
<path fill="#ff9800" stroke="black" d="M42,-63C42,-63 12,-63 12,-63 6,-63 0,-57 0,-51 0,-51 0,-39 0,-39 0,-33 6,-27 12,-27 12,-27 42,-27 42,-27 48,-27 54,-33 54,-39 54,-39 54,-51 54,-51 54,-57 48,-63 42,-63"/>
<text xml:space="preserve" text-anchor="middle" x="27" y="-39.95" font-family="Times,serif" font-size="14.00">To Do</text>
</g>
<!-- To Do&#45;&gt;BLOCKED -->
<g id="edge1" class="edge">
<title>To Do&#45;&gt;BLOCKED</title>
<path fill="none" stroke="black" d="M54.44,-49.04C80.78,-53.07 121.89,-59.35 154.44,-64.33"/>
<polygon fill="black" stroke="black" points="153.64,-67.75 164.06,-65.8 154.7,-60.83 153.64,-67.75"/>
<text xml:space="preserve" text-anchor="middle" x="109.88" y="-66.47" font-family="Times,serif" font-size="14.00">Start Progress</text>
</g>
<!-- To Do&#45;&gt;In Progress -->
<g id="edge2" class="edge">
<title>To Do&#45;&gt;In Progress</title>
<path fill="none" stroke="black" d="M54.31,-36.01C60.08,-34.29 66.2,-32.67 72,-31.5 99.22,-25.99 130.06,-22.68 155.15,-20.72"/>
<polygon fill="black" stroke="black" points="155.37,-24.21 165.09,-20 154.86,-17.23 155.37,-24.21"/>
<text xml:space="preserve" text-anchor="middle" x="109.88" y="-34.7" font-family="Times,serif" font-size="14.00">Start Progress</text>
</g>
</g>
</svg>
